<svg id="Layer_1" data-name="Layer 1" xmlns="http://www.w3.org/2000/svg" viewBox="0 0 599.99 192"><defs><style>.cls-1{fill:#fff;}</style></defs><title>colab-logo</title><path class="cls-1" d="M767.09,403.93a7.22,7.22,0,0,1-6.61,7.19q-40.2,3.42-67.39,3.42-19.61,0-28.8-9.2t-9.2-28.8v-64q0-21,9.5-30.5t30.5-9.5h64.78a7.22,7.22,0,0,1,7.22,7.22v13.57a7.21,7.21,0,0,1-7.22,7.21H703.09a12,12,0,0,0-12,12v64a9.86,9.86,0,0,0,2.7,7.3,9.31,9.31,0,0,0,6.9,2.7q4.2,0,9.2-.1t10.4-.29l10.9-.4q5.5-.21,14.2-.81,6-.4,14-.92a7.23,7.23,0,0,1,7.68,7.21Z" transform="translate(-655.09 -223)"/><path class="cls-1" d="M889.09,382.54q0,15-8.5,23.5t-23.5,8.5h-46q-15,0-23.5-8.5t-8.5-23.5v-46q0-15,8.5-23.5t23.5-8.5h46q15,0,23.5,8.5t8.5,23.5Zm-35-43q0-8-8-8h-24q-8,0-8,8v40q0,8,8,8h24q8,0,8-8Z" transform="translate(-655.09 -223)"/><path class="cls-1" d="M953.73,384.54h55.72a8.64,8.64,0,0,1,8.64,8.65V403.9a8.64,8.64,0,0,1-8.64,8.64H917.73a8.64,8.64,0,0,1-8.64-8.64V281.19a8.64,8.64,0,0,1,8.64-8.65h18.72a8.64,8.64,0,0,1,8.64,8.65V375.9A8.64,8.64,0,0,0,953.73,384.54Z" transform="translate(-655.09 -223)"/><path class="cls-1" d="M1123.8,313.2q-8.21-8.2-21.8-8.2-15,0-31.76,1a3.46,3.46,0,0,0-3.24,3.45v18.66a3.44,3.44,0,0,0,3.64,3.44Q1081,331,1090,331a6.84,6.84,0,0,1,7,7h0a8,8,0,0,1-8,8h-33q-13.61,0-21.8,8.2T1026,376v9q0,13.61,8.2,21.8T1056,415h7a61.51,61.51,0,0,0,16.7-2.9,69.17,69.17,0,0,0,13.88-5.82,4.67,4.67,0,0,1,2.23-.58,4.53,4.53,0,0,1,4.46,3.64,4.54,4.54,0,0,0,4.46,3.66H1124a8,8,0,0,0,8-8V335Q1132,321.4,1123.8,313.2Zm-27.71,66.74a3.45,3.45,0,0,1-2.56,3.33,81.51,81.51,0,0,1-21.44,3.27h-5a6.84,6.84,0,0,1-7-7v-2a6.84,6.84,0,0,1,7-7h25.55a3.44,3.44,0,0,1,3.45,3.45Z" transform="translate(-655.09 -223)"/><path class="cls-1" d="M1184.08,300.15a7,7,0,0,0,8.1,6.86,155.78,155.78,0,0,1,25.9-2.47h7q13.61,0,21.8,8.21t8.2,21.79v46q0,15-8.5,23.5t-23.5,8.5H1156a6.94,6.94,0,0,1-6.94-6.94V279.49a7,7,0,0,1,6.94-6.95h21.12a6.94,6.94,0,0,1,6.94,6.95Zm36,38.39a6.84,6.84,0,0,0-7-7h-5a114,114,0,0,0-14.5.8l-3.45.45a7,7,0,0,0-6.05,6.89V378.6a6.94,6.94,0,0,0,6.94,6.94h14.12a14.94,14.94,0,0,0,14.94-14.94Z" transform="translate(-655.09 -223)"/><rect class="cls-1" x="326.91" width="36" height="36" rx="7.9"/><rect class="cls-1" x="338.91" y="56" width="28" height="28" rx="7.9"/><rect class="cls-1" x="374.91" y="32" width="28" height="28" rx="7.9"/><rect class="cls-1" x="373.91" y="81" width="28" height="28" rx="7.9"/></svg>